HIERARCHY
ROOT Hips
{
  OFFSET -187.679 86.5976 -156.378
  CHANNELS 6 Xposition Yposition Zposition Zrotation Xrotation Yrotation
  JOINT LeftUpLeg
  {
    OFFSET 8.64259 1.95398 -2.38835
    CHANNELS 3 Zrotation Xrotation Yrotation
    JOINT LeftLeg
    {
      OFFSET 43.7702 0 0
      CHANNELS 3 Zrotation Xrotation Yrotation
      JOINT LeftFoot
      {
        OFFSET 40.6238 0 0
        CHANNELS 3 Zrotation Xrotation Yrotation
        JOINT LeftToeBase
        {
          OFFSET 12.7242 0 0
          CHANNELS 3 Zrotation Xrotation Yrotation
          End Site
          {
            OFFSET 0 0 0
          }
        }
      }
    }
  }
  JOINT RightUpLeg
  {
    OFFSET -8.2249 1.95398 -2.59336
    CHANNELS 3 Zrotation Xrotation Yrotation
    JOINT RightLeg
    {
      OFFSET 43.5653 0 0
      CHANNELS 3 Zrotation Xrotation Yrotation
      JOINT RightFoot
      {
        OFFSET 40.6238 0 0
        CHANNELS 3 Zrotation Xrotation Yrotation
        JOINT RightToeBase
        {
          OFFSET 12.7242 0 0
          CHANNELS 3 Zrotation Xrotation Yrotation
          End Site
          {
            OFFSET 0 0 0
          }
        }
      }
    }
  }
  JOINT Spine
  {
    OFFSET 0.165834 0.87714 6.61349
    CHANNELS 3 Zrotation Xrotation Yrotation
    JOINT Spine1
    {
      OFFSET 7.38963 1.71661e-005 0
      CHANNELS 3 Zrotation Xrotation Yrotation
      JOINT Spine2
      {
        OFFSET 11.9445 1.14441e-005 0
        CHANNELS 3 Zrotation Xrotation Yrotation
        JOINT Spine3
        {
          OFFSET 14.7254 4.19617e-005 0
          CHANNELS 3 Zrotation Xrotation Yrotation
          JOINT Spine4
          {
            OFFSET 10.9679 0 0
            CHANNELS 3 Zrotation Xrotation Yrotation
            JOINT RightShoulder
            {
              OFFSET 2.46616 -1.6653 3.69651
              CHANNELS 3 Zrotation Xrotation Yrotation
              JOINT RightArm
              {
                OFFSET 13.0012 0 0
                CHANNELS 3 Zrotation Xrotation Yrotation
                JOINT RightForeArm
                {
                  OFFSET 28.7848 1.52588e-005 0
                  CHANNELS 3 Zrotation Xrotation Yrotation
                  JOINT RightHand
                  {
                    OFFSET 26.5688 1.52588e-005 0
                    CHANNELS 3 Zrotation Xrotation Yrotation
                    End Site
                    {
                      OFFSET 0 0 0
                    }
                  }
                }
              }
            }
            JOINT LeftShoulder
            {
              OFFSET 2.38034 -1.29275 -3.7523
              CHANNELS 3 Zrotation Xrotation Yrotation
              JOINT LeftArm
              {
                OFFSET 16.3182 6.10352e-005 0
                CHANNELS 3 Zrotation Xrotation Yrotation
                JOINT LeftForeArm
                {
                  OFFSET 27.0901 0 0
                  CHANNELS 3 Zrotation Xrotation Yrotation
                  JOINT LeftHand
                  {
                    OFFSET 24.5451 1.52588e-005 0
                    CHANNELS 3 Zrotation Xrotation Yrotation
                    End Site
                    {
                      OFFSET 0 0 0
                    }
                  }
                }
              }
            }
            JOINT Neck
            {
              OFFSET 5.0226 -0.0266342 0
              CHANNELS 3 Zrotation Xrotation Yrotation
              JOINT Head
              {
                OFFSET 6.69363 2.86102e-005 0
                CHANNELS 3 Zrotation Xrotation Yrotation
                End Site
                {
                  OFFSET 0 0 0
                }
              }
            }
          }
        }
      }
    }
  }
}
MOTION
Frames:	18
Frame Time:	0.0416667
30.851 43.5526 0.95732 -8.27512 -79.6979 -8.60335 -9.97267 61.127 -40.9264 -147.407 38.544 12.6885 84.574 12.0319 1.23371 -3.79147 -11.3367 -3.89771 53.45 48.0861 -172.043 -142.735 3.12849 -9.94211 100.993 -16.2589 -3.59669 14.3327 -4.80328 5.74649 0.680598 12.268 -90.1159 2.33824 1.31405 -0.202369 -9.33205 1.30387 -0.260015 -31.8725 1.31411 0.201981 -11.8599 1.31411 0.201986 86.9079 -34.9585 -110.465 -34.2768 10.9543 -69.6424 -8.28156 18.4967 -0.00439694 7.51787 -1.41076 -24.2195 -90.5799 -22.6516 69.4534 27.188 -9.25893 -73.1802 3.57933 -42.8537 0.0084609 -25.092 1.72843 -13.2142 44.1516 -1.36845 -3.10337 -0.14135 0.360309 0.759218 
30.7597 42.9503 1.47498 -10.5512 -80.8208 -10.823 -9.14319 61.9574 -41.4776 -148.78 38.2229 12.7593 85.6853 12.9248 2.01246 -6.05868 -10.9977 -5.76262 54.6257 47.9367 -173.458 -143.962 3.45716 -10.0865 101.805 -16.6799 -4.26438 13.7768 -5.75754 7.61957 0.683059 12.1062 -90.1065 2.66209 1.32262 -0.189623 -9.00821 1.313 -0.24767 -31.5487 1.31845 0.216719 -11.5361 1.31846 0.216705 86.9543 -34.9816 -110.372 -34.8672 8.53276 -69.6786 -7.61998 19.7223 -0.00434055 8.92858 -1.58393 -23.3848 -90.7012 -23.5403 69.6001 25.7988 -6.98436 -73.2833 3.6007 -41.6887 0.00808693 -25.9801 1.93647 -13.8517 44.546 -1.68038 -3.07025 0.0325181 0.0699583 0.951907 
30.7484 45.1569 0.972833 -9.54851 -78.1106 -10.0233 -12.1808 62.3096 -38.599 -145.281 39.1926 12.2491 85.5483 13.6062 2.39154 -5.66124 -11.0821 -5.40774 53.549 49.268 -171.94 -140.766 0.471402 -9.79963 98.8845 -15.6192 -3.60576 15.181 -4.7899 6.15983 0.68676 11.7355 -90.0042 3.40244 1.37031 -0.00261962 -8.2678 1.36886 -0.0629329 -30.8084 1.30773 0.409405 -10.7957 1.30773 0.409417 86.6547 -35.278 -110.792 -35.2719 7.67633 -69.5577 -7.4252 19.4378 -0.0042911 8.16084 -1.43644 -23.112 -90.8327 -23.812 69.4481 25.4142 -5.84414 -72.1221 3.86457 -42.1097 0.00819301 -25.2743 1.87938 -13.8702 45.9178 -1.92931 -3.19385 0.0939225 -0.0542572 1.0317 
30.763 50.2322 -0.297813 -6.66957 -72.4207 -7.49104 -17.927 63.0766 -34.016 -136.237 41.2564 10.0465 84.975 14.4128 3.08292 -3.33207 -10.1798 -5.27363 52.4159 52.0019 -169.904 -132.969 -4.36334 -8.26359 95.7483 -14.4993 -2.96164 14.8665 -5.10918 6.74084 0.659959 11.2666 -89.9015 4.3393 1.35874 0.182173 -7.33092 1.36544 0.122169 -29.8709 1.24116 0.582149 -9.85828 1.24116 0.582154 87.0678 -35.3106 -110.034 -32.9866 7.98908 -70.874 -7.74224 19.3589 -0.00428668 7.5023 -1.35939 -23.517 -90.8503 -24.2364 69.598 24.0535 -5.95715 -72.326 4.28084 -39.4725 0.00829113 -24.9579 1.91362 -14.1804 47.4735 -2.27528 -3.37809 -0.102834 -0.220004 1.34455 
30.5727 57.3284 -1.76888 -4.44416 -66.1113 -5.04352 -22.3354 66.5454 -31.9009 -121.646 43.0331 4.79168 84.3813 14.313 2.63745 -3.25966 -10.1219 -5.31542 54.4016 56.1459 -170.552 -121.456 -10.4581 -4.65854 91.7454 -13.0616 -2.76062 15.2374 -4.77272 6.1576 0.646431 10.8234 -89.8599 5.22536 1.34967 0.248646 -6.44491 1.3593 0.188975 -28.9846 1.21253 0.642836 -8.97198 1.21253 0.642821 86.5866 -36.4942 -110.423 -32.3797 7.51373 -70.8402 -7.66351 16.1406 -0.00423916 7.10758 -1.23069 -22.5857 -91.0463 -24.6558 69.3821 23.0463 -5.69445 -72.1387 4.99744 -33.1606 0.00269526 -23.9707 1.9411 -14.7906 47.6313 -2.8227 -4.03526 -0.165203 -0.350916 1.84261 
30.3469 65.3548 -2.69685 -3.44759 -59.3903 -3.51886 -26.4172 71.1573 -29.9052 -102.682 44.1741 -3.56274 81.1508 12.3664 1.92363 1.41207 -9.44544 -3.30046 58.9586 60.8197 -174.434 -106.516 -15.4644 1.71696 87.5252 -11.102 -1.51458 14.6821 -5.46153 7.45024 0.630448 10.3506 -89.8511 6.17128 1.32232 0.251021 -5.49902 1.33208 0.192558 -28.0385 1.18574 0.63688 -8.02588 1.18574 0.636865 85.9133 -37.7975 -111.083 -32.1212 6.08031 -69.5729 -7.80666 13.8307 0.109236 5.42874 -0.932647 -21.9376 -91.2295 -25.371 69.3219 23.6689 -4.54187 -71.0603 5.06334 -27.1866 -1.09236 -22.2354 1.73099 -14.5295 47.4641 -2.92996 -3.99064 0.778155 -0.491182 1.03712 
30.2667 73.5443 -2.94232 -3.15288 -54.0921 -3.106 -39.5149 77.0838 -17.651 -80.2484 44.5662 -14.5699 78.1948 10.6636 1.84748 2.37552 -10.0814 -1.64685 69.4315 65.6886 175.345 -88.5447 -20.8286 10.05 81.6787 -9.02004 -2.36665 14.3054 -5.68003 7.73201 0.602467 9.89336 -89.7999 7.08516 1.28927 0.337665 -4.58517 1.3029 0.280595 -27.1241 1.12818 0.70958 -7.11148 1.12818 0.709572 85.7658 -38.2294 -111.167 -31.6179 2.96151 -67.8038 -7.94274 10.5966 -1.21776 5.88563 -1.03056 -22.4316 -91.4292 -25.8829 69.1454 24.3407 -2.38362 -69.5702 4.41589 -20.3175 -4.67868 -22.5983 1.81333 -14.802 47.5531 -2.57009 -3.59508 1.30475 -0.382691 0.586266 
30.3886 80.8741 -2.59012 -3.08386 -51.2714 -3.67938 -85.6914 81.8598 27.3354 -58.2827 40.7238 -24.794 74.4147 8.41463 2.16807 2.19624 -8.47181 -4.34529 89.7327 70.238 156.482 -71.1848 -18.447 17.3702 77.111 -6.69001 -0.778412 14.1802 -5.8394 8.02229 0.483948 9.49639 -89.6697 7.87793 1.11036 0.591833 -3.79265 1.13533 0.542387 -26.3293 0.881155 0.898174 -6.31671 0.88116 0.898194 84.9324 -39.602 -112.042 -30.4557 0.410141 -65.763 -8.26519 6.27894 -4.83145 4.97075 -0.832625 -21.3054 -91.4317 -26.6291 69.4571 25.9424 0.703705 -67.6705 4.00533 -17.9081 -8.19959 -21.4499 1.75146 -15.0946 47.8388 -2.51714 -3.66746 1.03581 -0.280842 0.689685 
30.5528 86.6029 -1.76145 -3.7434 -52.8744 -4.42253 -142.834 76.4516 82.3818 -44.7509 33.9324 -27.0802 72.8446 7.08934 0.729217 4.39434 -8.6723 -2.50383 121.368 69.3246 127.155 -57.6462 -13.8833 20.7284 73.5522 -5.06109 -0.653854 14.2927 -5.83641 8.07644 0.428474 9.28549 -89.6508 8.29971 1.00893 0.629741 -3.37099 1.03567 0.584723 -25.9069 0.773028 0.903858 -5.89428 0.773032 0.903851 83.9569 -41.2179 -113.021 -29.366 -2.68673 -63.071 -9.0338 4.73838 -8.95979 3.31346 -0.557367 -20.2217 -91.4527 -26.6715 69.4337 23.9855 3.59356 -66.5441 4.63519 -13.1897 -9.1913 -20.3256 1.64484 -15.114 46.5602 -2.25069 -4.12814 1.95446 0.183587 0.976341 
30.6147 90.9925 -0.31986 -4.94528 -57.8059 -5.40145 -160.892 66.6029 96.3048 -39.4092 28.1425 -21.9611 70.8472 5.87504 -0.0644477 7.98647 -7.58746 -1.73084 145.376 62.3564 106.636 -48.6556 -7.85117 19.3418 70.5281 -3.88071 -0.440342 16.5755 -4.92148 7.26259 0.347621 9.16387 -89.6696 8.54375 0.839856 0.600678 -3.12706 0.865473 0.563126 -25.6625 0.620502 0.825318 -5.64981 0.620502 0.825307 83.8003 -42.4775 -112.768 -26.2304 -5.73597 -60.6835 -10.4191 2.76761 -13.8749 3.01722 -0.47743 -19.0628 -91.4854 -27.6805 69.7891 23.2128 6.98645 -65.4534 4.43518 -12.8965 -10.539 -20.3726 1.54773 -14.5012 44.4529 -2.23702 -5.08834 2.33607 0.627619 1.11531 
30.5803 94.1623 1.75172 -5.96464 -64.3371 -6.56573 -167 55.5798 97.6753 -37.2488 23.4108 -14.5782 70.7888 5.23117 -0.836171 10.9812 -7.38208 0.276408 158.364 52.9417 96.962 -43.4015 -1.64536 15.8117 69.1686 -3.38219 0.0621629 18.6542 -4.2647 6.8634 0.263821 8.95657 -89.6895 8.95873 0.664754 0.569201 -2.71215 0.689164 0.539383 -25.2471 0.46296 0.742661 -5.23442 0.462957 0.742663 83.8618 -43.0394 -112.448 -21.2079 -8.77526 -56.2583 -12.5196 2.39848 -19.795 3.25919 -0.47412 -18.072 -92.1362 -29.9607 69.4684 21.7928 10.4917 -61.3438 4.78264 -12.9319 -16.2413 -18.5575 1.06347 -12.2199 39.2856 -2.06986 -5.04557 2.60824 0.503915 0.94287 
30.5954 96.3649 4.40375 -8.83219 -71.1226 -10.0122 -169.928 44.229 96.5716 -35.034 19.0835 -8.35702 71.2175 4.98478 -1.56262 11.4881 -7.29286 0.525504 165.126 43.0803 92.6479 -39.5717 2.15444 11.8487 68.3035 -3.1921 0.663155 21.7415 -2.94343 5.16848 0.200728 8.71572 -89.6354 9.44027 0.564348 0.680396 -2.23069 0.593751 0.654898 -24.7648 0.333785 0.818559 -4.7522 0.333774 0.818536 84.2828 -43.2722 -111.677 -15.0874 -10.6691 -51.7338 -12.616 7.86558 -25.0839 4.89214 -0.714826 -19.1334 -92.0003 -31.7339 70.41 18.5622 12.9734 -58.3281 6.2364 -11.4726 -20.7356 -21.4758 1.48583 -13.5128 33.1162 -1.63168 -3.87132 1.61576 0.0956638 -0.00798481 
30.6852 97.9957 7.31366 -11.5001 -77.5199 -13.3386 -172.185 33.4117 94.5317 -32.5922 15.7602 -3.04814 71.6566 4.9798 -2.19805 15.3837 -6.60858 2.6081 168.937 33.5241 90.1574 -36.7356 5.81465 8.88392 69.0455 -3.45483 1.04109 22.4356 -2.49164 4.29619 0.109151 8.42269 -89.5701 10.0263 0.413185 0.819548 -1.64482 0.448842 0.800563 -24.178 0.14778 0.905824 -4.16536 0.147776 0.905826 85.3873 -43.7103 -109.726 -9.24324 -12.0683 -48.1035 -11.1992 12.9469 -30.2475 4.48905 -0.593829 -17.6207 -90.961 -33.0518 72.7815 13.8646 13.7004 -56.4017 6.72038 -12.4106 -23.92 -22.8351 1.50665 -12.9555 24.7042 -0.859501 -4.97564 4.12533 1.02498 1.62737 
30.6289 99.5211 10.4493 -22.9664 -83.5236 -24.9743 -173.856 21.9559 92.9963 -28.2411 13.1447 1.3318 71.7239 4.78148 -3.31901 15.56 -7.12638 3.86293 170.874 22.8115 88.9567 -31.884 8.1453 6.83005 68.6875 -3.33847 1.4662 24.017 -2.11238 4.11912 0.099345 8.2598 -89.6022 10.3524 0.380063 0.75723 -1.31874 0.413009 0.739749 -23.8522 0.134913 0.836432 -3.83957 0.13492 0.836443 86.5627 -43.4805 -107.9 -3.187 -11.7558 -44.8855 -10.8174 13.9528 -36.2639 4.82555 -0.575464 -16.0876 -90.1015 -34.3934 74.7579 8.63716 12.6761 -54.803 7.41602 -12.5235 -28.3735 -25.661 1.64644 -12.545 19.19 -0.34333 -3.60498 4.26829 0.808619 0.645756 
30.4796 100.578 13.274 -65.5182 -86.71 -67.694 -174.212 12.561 92.055 -23.2844 12.1876 3.58122 70.6311 4.41017 -3.3478 17.3569 -7.1365 5.66767 171.985 14.1476 88.506 -27.3723 9.17083 5.29693 68.5379 -3.24021 1.75456 24.3403 -1.78903 3.33233 0.132859 7.98134 -89.5924 10.909 0.453032 0.767508 -0.762043 0.486372 0.746824 -23.2956 0.201426 0.868178 -3.28291 0.201437 0.868186 87.5839 -43.2378 -106.306 1.77839 -11.3974 -43.1886 -9.27931 16.2946 -40.1331 4.11116 -0.437098 -14.852 -90.0803 -34.8202 74.9342 1.66147 9.40801 -51.4182 8.87691 -11.0279 -33.3366 -24.5966 1.05506 -10.0797 13.6756 0.305966 -2.97334 3.75114 1.06994 0.316905 
30.1548 101.236 15.6426 -117.062 -85.4588 -119.069 -174.085 4.92381 91.8814 -18.6779 11.1063 5.2903 69.7288 3.89552 -3.96826 18.5 -7.18411 6.97177 172.448 7.25373 88.3712 -23.451 9.00876 4.4473 67.8819 -3.04196 1.98065 23.7732 -1.96623 3.54239 0.182408 7.73632 -89.6526 11.3993 0.525116 0.638879 -0.271674 0.552732 0.615142 -22.8059 0.308838 0.767159 -2.79329 0.308836 0.767153 88.2091 -42.2761 -105.579 5.52765 -10.1771 -41.4996 -7.49163 17.7672 -45.8439 4.1095 -0.351408 -12.7624 -88.2968 -35.7238 78.3573 -2.45368 7.20047 -49.8258 6.04291 -14.6313 -39.4179 -19.4034 0.0366128 -5.01142 10.2413 1.25073 -0.871766 2.25615 1.36628 -1.12739 
30.2388 101.645 17.5548 -131.551 -82.9674 -133.759 -174.034 -0.702935 91.2514 -14.5703 10.1942 6.39934 68.4333 3.45793 -4.07672 18.9687 -7.51992 8.21673 171.935 2.10939 87.2402 -20.6082 7.13859 4.07139 67.7002 -2.88032 1.97757 23.4816 -1.95718 3.35056 0.158305 7.57993 -89.6088 11.7119 0.498511 0.727637 0.0408326 0.530056 0.704984 -22.4929 0.256788 0.843813 -2.4803 0.256788 0.84381 87.3315 -43.183 -106.74 6.23511 -8.77865 -40.9084 -9.26255 15.4655 -51.8221 7.06339 -0.592755 -13.3441 -87.2782 -34.7372 79.9303 -7.50623 5.49758 -44.4044 -3.58822 -21.1192 -49.6616 -19.3504 -0.0884803 -4.17863 7.95147 2.01059 -1.15145 1.12399 2.18906 -0.43967 
30.0957 101.822 19.0974 -134.526 -80.6171 -136.491 -173.512 -6.02129 90.9604 -11.5095 9.26961 6.82036 68.1752 3.46954 -3.91223 18.9468 -7.57116 8.30536 171.967 -1.7429 87.1728 -18.087 5.97908 3.53307 67.5025 -2.71196 1.77941 23.6722 -1.99986 3.5834 0.271167 7.47957 -89.6798 11.9127 0.690084 0.564464 0.241867 0.714256 0.533536 -22.2931 0.488536 0.745751 -2.28049 0.488536 0.745757 87.8804 -42.53 -106.044 7.83343 -8.65667 -40.4029 -7.7359 16.2087 -56.5526 7.50508 -0.541413 -12.1501 -87.0854 -35.8672 80.5405 -11.4296 4.69036 -39.5053 -16.4216 -25.9532 -58.7829 -16.4111 -0.333902 -2.09544 5.84506 2.2616 -0.68713 0.635616 2.33521 -0.535018 
